<?xml version="1.0" standalone="yes"?>
<!-- SVG graphic -->
<svg xmlns='http://www.w3.org/2000/svg' xmlns:xlink='http://www.w3.org/1999/xlink'
 version="1.1">
<rect x="0" y="0" width="6" height="200" stroke="black" stroke-width="1" fill="blue" tooltip="enable"><title>(0,366691)</title></rect><rect x="6" y="32.7567" width="6" height="167.243" stroke="black" stroke-width="1" fill="blue" tooltip="enable"><title>(0.0585319,306633)</title></rect><rect x="12" y="70.7767" width="6" height="129.223" stroke="black" stroke-width="1" fill="blue" tooltip="enable"><title>(0.117064,236925)</title></rect><rect x="18" y="104.494" width="6" height="95.506" stroke="black" stroke-width="1" fill="blue" tooltip="enable"><title>(0.175596,175106)</title></rect><rect x="24" y="130.471" width="6" height="69.5288" stroke="black" stroke-width="1" fill="blue" tooltip="enable"><title>(0.234128,127478)</title></rect><rect x="30" y="149.767" width="6" height="50.233" stroke="black" stroke-width="1" fill="blue" tooltip="enable"><title>(0.292659,92100)</title></rect><rect x="36" y="162.643" width="6" height="37.3568" stroke="black" stroke-width="1" fill="blue" tooltip="enable"><title>(0.351191,68492)</title></rect><rect x="42" y="171.801" width="6" height="28.1987" stroke="black" stroke-width="1" fill="blue" tooltip="enable"><title>(0.409723,51701)</title></rect><rect x="48" y="178.711" width="6" height="21.2888" stroke="black" stroke-width="1" fill="blue" tooltip="enable"><title>(0.468255,39032)</title></rect><rect x="54" y="183.421" width="6" height="16.5791" stroke="black" stroke-width="1" fill="blue" tooltip="enable"><title>(0.526787,30397)</title></rect><rect x="60" y="187.206" width="6" height="12.7944" stroke="black" stroke-width="1" fill="blue" tooltip="enable"><title>(0.585319,23458)</title></rect><rect x="66" y="189.862" width="6" height="10.1377" stroke="black" stroke-width="1" fill="blue" tooltip="enable"><title>(0.643851,18587)</title></rect><rect x="72" y="191.641" width="6" height="8.35908" stroke="black" stroke-width="1" fill="blue" tooltip="enable"><title>(0.702383,15326)</title></rect><rect x="78" y="193.291" width="6" height="6.70919" stroke="black" stroke-width="1" fill="blue" tooltip="enable"><title>(0.760915,12301)</title></rect><rect x="84" y="194.446" width="6" height="5.554" stroke="black" stroke-width="1" fill="blue" tooltip="enable"><title>(0.819446,10183)</title></rect><rect x="90" y="195.445" width="6" height="4.55533" stroke="black" stroke-width="1" fill="blue" tooltip="enable"><title>(0.877978,8352)</title></rect><rect x="96" y="196.19" width="6" height="3.81029" stroke="black" stroke-width="1" fill="blue" tooltip="enable"><title>(0.93651,6986)</title></rect><rect x="102" y="196.789" width="6" height="3.21088" stroke="black" stroke-width="1" fill="blue" tooltip="enable"><title>(0.995042,5887)</title></rect><rect x="108" y="197.303" width="6" height="2.69709" stroke="black" stroke-width="1" fill="blue" tooltip="enable"><title>(1.05357,4945)</title></rect><rect x="114" y="197.66" width="6" height="2.34039" stroke="black" stroke-width="1" fill="blue" tooltip="enable"><title>(1.11211,4291)</title></rect><rect x="120" y="197.998" width="6" height="2.00223" stroke="black" stroke-width="1" fill="blue" tooltip="enable"><title>(1.17064,3671)</title></rect><rect x="126" y="198.252" width="6" height="1.74807" stroke="black" stroke-width="1" fill="blue" tooltip="enable"><title>(1.22917,3205)</title></rect><rect x="132" y="198.458" width="6" height="1.5419" stroke="black" stroke-width="1" fill="blue" tooltip="enable"><title>(1.2877,2827)</title></rect><rect x="138" y="198.67" width="6" height="1.32973" stroke="black" stroke-width="1" fill="blue" tooltip="enable"><title>(1.34623,2438)</title></rect><rect x="144" y="198.838" width="6" height="1.16229" stroke="black" stroke-width="1" fill="blue" tooltip="enable"><title>(1.40477,2131)</title></rect><rect x="150" y="198.996" width="6" height="1.00412" stroke="black" stroke-width="1" fill="blue" tooltip="enable"><title>(1.4633,1841)</title></rect><rect x="156" y="199.103" width="6" height="0.896668" stroke="black" stroke-width="1" fill="blue" tooltip="enable"><title>(1.52183,1644)</title></rect><rect x="162" y="199.198" width="6" height="0.801765" stroke="black" stroke-width="1" fill="blue" tooltip="enable"><title>(1.58036,1470)</title></rect><rect x="168" y="199.314" width="6" height="0.686136" stroke="black" stroke-width="1" fill="blue" tooltip="enable"><title>(1.63889,1258)</title></rect><rect x="174" y="199.39" width="6" height="0.609778" stroke="black" stroke-width="1" fill="blue" tooltip="enable"><title>(1.69742,1118)</title></rect><rect x="180" y="199.458" width="6" height="0.542146" stroke="black" stroke-width="1" fill="blue" tooltip="enable"><title>(1.75596,994)</title></rect><rect x="186" y="199.503" width="6" height="0.497422" stroke="black" stroke-width="1" fill="blue" tooltip="enable"><title>(1.81449,912)</title></rect><rect x="192" y="199.565" width="6" height="0.435244" stroke="black" stroke-width="1" fill="blue" tooltip="enable"><title>(1.87302,798)</title></rect><rect x="198" y="199.603" width="6" height="0.397065" stroke="black" stroke-width="1" fill="blue" tooltip="enable"><title>(1.93155,728)</title></rect><rect x="204" y="199.626" width="6" height="0.373612" stroke="black" stroke-width="1" fill="blue" tooltip="enable"><title>(1.99008,685)</title></rect><rect x="210" y="199.677" width="6" height="0.323433" stroke="black" stroke-width="1" fill="blue" tooltip="enable"><title>(2.04862,593)</title></rect><rect x="216" y="199.722" width="6" height="0.278163" stroke="black" stroke-width="1" fill="blue" tooltip="enable"><title>(2.10715,510)</title></rect><rect x="222" y="199.746" width="6" height="0.25362" stroke="black" stroke-width="1" fill="blue" tooltip="enable"><title>(2.16568,465)</title></rect><rect x="228" y="199.762" width="6" height="0.237802" stroke="black" stroke-width="1" fill="blue" tooltip="enable"><title>(2.22421,436)</title></rect><rect x="234" y="199.778" width="6" height="0.221985" stroke="black" stroke-width="1" fill="blue" tooltip="enable"><title>(2.28274,407)</title></rect><rect x="240" y="199.807" width="6" height="0.192533" stroke="black" stroke-width="1" fill="blue" tooltip="enable"><title>(2.34128,353)</title></rect><rect x="246" y="199.833" width="6" height="0.167443" stroke="black" stroke-width="1" fill="blue" tooltip="enable"><title>(2.39981,307)</title></rect><rect x="252" y="199.849" width="6" height="0.151081" stroke="black" stroke-width="1" fill="blue" tooltip="enable"><title>(2.45834,277)</title></rect><rect x="258" y="199.833" width="6" height="0.166898" stroke="black" stroke-width="1" fill="blue" tooltip="enable"><title>(2.51687,306)</title></rect><rect x="264" y="199.851" width="6" height="0.149445" stroke="black" stroke-width="1" fill="blue" tooltip="enable"><title>(2.5754,274)</title></rect><rect x="270" y="199.876" width="6" height="0.12381" stroke="black" stroke-width="1" fill="blue" tooltip="enable"><title>(2.63393,227)</title></rect><rect x="276" y="199.899" width="6" height="0.100902" stroke="black" stroke-width="1" fill="blue" tooltip="enable"><title>(2.69247,185)</title></rect><rect x="282" y="199.892" width="6" height="0.107993" stroke="black" stroke-width="1" fill="blue" tooltip="enable"><title>(2.751,198)</title></rect><rect x="288" y="199.908" width="6" height="0.0916303" stroke="black" stroke-width="1" fill="blue" tooltip="enable"><title>(2.80953,168)</title></rect><rect x="294" y="199.918" width="6" height="0.0818128" stroke="black" stroke-width="1" fill="blue" tooltip="enable"><title>(2.86806,150)</title></rect><rect x="300" y="199.932" width="6" height="0.0681773" stroke="black" stroke-width="1" fill="blue" tooltip="enable"><title>(2.92659,125)</title></rect><rect x="306" y="199.936" width="6" height="0.0643594" stroke="black" stroke-width="1" fill="blue" tooltip="enable"><title>(2.98513,118)</title></rect><rect x="312" y="199.939" width="6" height="0.0605414" stroke="black" stroke-width="1" fill="blue" tooltip="enable"><title>(3.04366,111)</title></rect><rect x="318" y="199.935" width="6" height="0.0649048" stroke="black" stroke-width="1" fill="blue" tooltip="enable"><title>(3.10219,119)</title></rect><rect x="324" y="199.939" width="6" height="0.0605414" stroke="black" stroke-width="1" fill="blue" tooltip="enable"><title>(3.16072,111)</title></rect><rect x="330" y="199.948" width="6" height="0.0518147" stroke="black" stroke-width="1" fill="blue" tooltip="enable"><title>(3.21925,95)</title></rect><rect x="336" y="199.954" width="6" height="0.0463606" stroke="black" stroke-width="1" fill="blue" tooltip="enable"><title>(3.27779,85)</title></rect><rect x="342" y="199.955" width="6" height="0.0447243" stroke="black" stroke-width="1" fill="blue" tooltip="enable"><title>(3.33632,82)</title></rect><rect x="348" y="199.966" width="6" height="0.0343614" stroke="black" stroke-width="1" fill="blue" tooltip="enable"><title>(3.39485,63)</title></rect><rect x="354" y="199.965" width="6" height="0.0354522" stroke="black" stroke-width="1" fill="blue" tooltip="enable"><title>(3.45338,65)</title></rect><rect x="360" y="199.967" width="6" height="0.0327251" stroke="black" stroke-width="1" fill="blue" tooltip="enable"><title>(3.51191,60)</title></rect><rect x="366" y="199.975" width="6" height="0.0250892" stroke="black" stroke-width="1" fill="blue" tooltip="enable"><title>(3.57045,46)</title></rect><rect x="372" y="199.979" width="6" height="0.0212713" stroke="black" stroke-width="1" fill="blue" tooltip="enable"><title>(3.62898,39)</title></rect><rect x="378" y="199.974" width="6" height="0.0261801" stroke="black" stroke-width="1" fill="blue" tooltip="enable"><title>(3.68751,48)</title></rect><rect x="384" y="199.978" width="6" height="0.0223622" stroke="black" stroke-width="1" fill="blue" tooltip="enable"><title>(3.74604,41)</title></rect><rect x="390" y="199.988" width="6" height="0.0119992" stroke="black" stroke-width="1" fill="blue" tooltip="enable"><title>(3.80457,22)</title></rect><rect x="396" y="199.984" width="6" height="0.0163626" stroke="black" stroke-width="1" fill="blue" tooltip="enable"><title>(3.8631,30)</title></rect><rect x="402" y="199.984" width="6" height="0.0158171" stroke="black" stroke-width="1" fill="blue" tooltip="enable"><title>(3.92164,29)</title></rect><rect x="408" y="199.992" width="6" height="0.00763586" stroke="black" stroke-width="1" fill="blue" tooltip="enable"><title>(3.98017,14)</title></rect><rect x="414" y="199.995" width="6" height="0.00545418" stroke="black" stroke-width="1" fill="blue" tooltip="enable"><title>(4.0387,10)</title></rect><rect x="420" y="199.997" width="6" height="0.00272709" stroke="black" stroke-width="1" fill="blue" tooltip="enable"><title>(4.09723,5)</title></rect><rect x="426" y="199.998" width="6" height="0.00218167" stroke="black" stroke-width="1" fill="blue" tooltip="enable"><title>(4.15576,4)</title></rect><rect x="432" y="199.997" width="6" height="0.00327251" stroke="black" stroke-width="1" fill="blue" tooltip="enable"><title>(4.2143,6)</title></rect><rect x="438" y="199.997" width="6" height="0.00327251" stroke="black" stroke-width="1" fill="blue" tooltip="enable"><title>(4.27283,6)</title></rect><rect x="444" y="199.999" width="6" height="0.00109084" stroke="black" stroke-width="1" fill="blue" tooltip="enable"><title>(4.33136,2)</title></rect><rect x="450" y="199.997" width="6" height="0.00272709" stroke="black" stroke-width="1" fill="blue" tooltip="enable"><title>(4.38989,5)</title></rect><rect x="456" y="199.998" width="6" height="0.00218167" stroke="black" stroke-width="1" fill="blue" tooltip="enable"><title>(4.44842,4)</title></rect><rect x="462" y="199.997" width="6" height="0.00272709" stroke="black" stroke-width="1" fill="blue" tooltip="enable"><title>(4.50696,5)</title></rect><rect x="468" y="199.997" width="6" height="0.00327251" stroke="black" stroke-width="1" fill="blue" tooltip="enable"><title>(4.56549,6)</title></rect><rect x="474" y="200" width="6" height="0" stroke="black" stroke-width="1" fill="blue" tooltip="enable"><title>(4.62402,0)</title></rect><rect x="480" y="199.999" width="6" height="0.00109084" stroke="black" stroke-width="1" fill="blue" tooltip="enable"><title>(4.68255,2)</title></rect><rect x="486" y="199.999" width="6" height="0.00109084" stroke="black" stroke-width="1" fill="blue" tooltip="enable"><title>(4.74108,2)</title></rect><rect x="492" y="199.999" width="6" height="0.00109084" stroke="black" stroke-width="1" fill="blue" tooltip="enable"><title>(4.79961,2)</title></rect><rect x="498" y="199.999" width="6" height="0.00109084" stroke="black" stroke-width="1" fill="blue" tooltip="enable"><title>(4.85815,2)</title></rect><rect x="504" y="199.999" width="6" height="0.000545418" stroke="black" stroke-width="1" fill="blue" tooltip="enable"><title>(4.91668,1)</title></rect><rect x="510" y="199.999" width="6" height="0.000545418" stroke="black" stroke-width="1" fill="blue" tooltip="enable"><title>(4.97521,1)</title></rect><rect x="516" y="200" width="6" height="0" stroke="black" stroke-width="1" fill="blue" tooltip="enable"><title>(5.03374,0)</title></rect><rect x="522" y="199.999" width="6" height="0.000545418" stroke="black" stroke-width="1" fill="blue" tooltip="enable"><title>(5.09227,1)</title></rect><rect x="528" y="200" width="6" height="0" stroke="black" stroke-width="1" fill="blue" tooltip="enable"><title>(5.15081,0)</title></rect><rect x="534" y="199.999" width="6" height="0.000545418" stroke="black" stroke-width="1" fill="blue" tooltip="enable"><title>(5.20934,1)</title></rect><rect x="540" y="199.999" width="6" height="0.000545418" stroke="black" stroke-width="1" fill="blue" tooltip="enable"><title>(5.26787,1)</title></rect><rect x="546" y="200" width="6" height="0" stroke="black" stroke-width="1" fill="blue" tooltip="enable"><title>(5.3264,0)</title></rect><rect x="552" y="199.999" width="6" height="0.000545418" stroke="black" stroke-width="1" fill="blue" tooltip="enable"><title>(5.38493,1)</title></rect><rect x="558" y="200" width="6" height="0" stroke="black" stroke-width="1" fill="blue" tooltip="enable"><title>(5.44347,0)</title></rect><rect x="564" y="200" width="6" height="0" stroke="black" stroke-width="1" fill="blue" tooltip="enable"><title>(5.502,0)</title></rect><rect x="570" y="200" width="6" height="0" stroke="black" stroke-width="1" fill="blue" tooltip="enable"><title>(5.56053,0)</title></rect><rect x="576" y="199.999" width="6" height="0.000545418" stroke="black" stroke-width="1" fill="blue" tooltip="enable"><title>(5.61906,1)</title></rect><rect x="582" y="200" width="6" height="0" stroke="black" stroke-width="1" fill="blue" tooltip="enable"><title>(5.67759,0)</title></rect><rect x="588" y="199.999" width="6" height="0.000545418" stroke="black" stroke-width="1" fill="blue" tooltip="enable"><title>(5.73613,1)</title></rect><rect x="594" y="200" width="6" height="0" stroke="black" stroke-width="1" fill="blue" tooltip="enable"><title>(5.79466,0)</title></rect><text x="30" y="240" font-size="20" fill="black">0</text>
<text x="600" y="240" font-size="20" fill="black">5.85319</text>
<polyline points="0,220,600,220" stroke="black" stroke-width="1" fill="none"/>
<text x="720" y="20" font-size="20" fill="black">366691</text>
<text x="720" y="200" font-size="20" fill="black">0</text>
<polyline points="660,0,660,200" stroke="black" stroke-width="1" fill="none"/>
</svg>