<?xml version="1.0" standalone="yes"?>
<!-- SVG graphic -->
<svg xmlns='http://www.w3.org/2000/svg' xmlns:xlink='http://www.w3.org/1999/xlink'
 version="1.1">
<rect x="0" y="0" width="6" height="200" stroke="black" stroke-width="1" fill="blue" tooltip="enable"><title>(0,424453)</title></rect><rect x="6" y="70.3277" width="6" height="129.672" stroke="black" stroke-width="1" fill="blue" tooltip="enable"><title>(0.0397491,275199)</title></rect><rect x="12" y="90.6433" width="6" height="109.357" stroke="black" stroke-width="1" fill="blue" tooltip="enable"><title>(0.0794983,232084)</title></rect><rect x="18" y="109.273" width="6" height="90.7267" stroke="black" stroke-width="1" fill="blue" tooltip="enable"><title>(0.119247,192546)</title></rect><rect x="24" y="125.704" width="6" height="74.2961" stroke="black" stroke-width="1" fill="blue" tooltip="enable"><title>(0.158997,157676)</title></rect><rect x="30" y="140.042" width="6" height="59.9581" stroke="black" stroke-width="1" fill="blue" tooltip="enable"><title>(0.198746,127247)</title></rect><rect x="36" y="151.591" width="6" height="48.4091" stroke="black" stroke-width="1" fill="blue" tooltip="enable"><title>(0.238495,102737)</title></rect><rect x="42" y="160.851" width="6" height="39.1492" stroke="black" stroke-width="1" fill="blue" tooltip="enable"><title>(0.278244,83085)</title></rect><rect x="48" y="168.417" width="6" height="31.5832" stroke="black" stroke-width="1" fill="blue" tooltip="enable"><title>(0.317993,67028)</title></rect><rect x="54" y="174.24" width="6" height="25.7597" stroke="black" stroke-width="1" fill="blue" tooltip="enable"><title>(0.357742,54669)</title></rect><rect x="60" y="178.522" width="6" height="21.4785" stroke="black" stroke-width="1" fill="blue" tooltip="enable"><title>(0.397491,45583)</title></rect><rect x="66" y="182.425" width="6" height="17.5751" stroke="black" stroke-width="1" fill="blue" tooltip="enable"><title>(0.43724,37299)</title></rect><rect x="72" y="185.557" width="6" height="14.4431" stroke="black" stroke-width="1" fill="blue" tooltip="enable"><title>(0.47699,30652)</title></rect><rect x="78" y="187.789" width="6" height="12.211" stroke="black" stroke-width="1" fill="blue" tooltip="enable"><title>(0.516739,25915)</title></rect><rect x="84" y="189.673" width="6" height="10.3272" stroke="black" stroke-width="1" fill="blue" tooltip="enable"><title>(0.556488,21917)</title></rect><rect x="90" y="191.344" width="6" height="8.65632" stroke="black" stroke-width="1" fill="blue" tooltip="enable"><title>(0.596237,18371)</title></rect><rect x="96" y="192.583" width="6" height="7.4166" stroke="black" stroke-width="1" fill="blue" tooltip="enable"><title>(0.635986,15740)</title></rect><rect x="102" y="193.681" width="6" height="6.31919" stroke="black" stroke-width="1" fill="blue" tooltip="enable"><title>(0.675735,13411)</title></rect><rect x="108" y="194.35" width="6" height="5.64962" stroke="black" stroke-width="1" fill="blue" tooltip="enable"><title>(0.715484,11990)</title></rect><rect x="114" y="195.166" width="6" height="4.83446" stroke="black" stroke-width="1" fill="blue" tooltip="enable"><title>(0.755233,10260)</title></rect><rect x="120" y="195.785" width="6" height="4.21531" stroke="black" stroke-width="1" fill="blue" tooltip="enable"><title>(0.794983,8946)</title></rect><rect x="126" y="196.289" width="6" height="3.71066" stroke="black" stroke-width="1" fill="blue" tooltip="enable"><title>(0.834732,7875)</title></rect><rect x="132" y="196.729" width="6" height="3.2715" stroke="black" stroke-width="1" fill="blue" tooltip="enable"><title>(0.874481,6943)</title></rect><rect x="138" y="197.165" width="6" height="2.83471" stroke="black" stroke-width="1" fill="blue" tooltip="enable"><title>(0.91423,6016)</title></rect><rect x="144" y="197.473" width="6" height="2.52655" stroke="black" stroke-width="1" fill="blue" tooltip="enable"><title>(0.953979,5362)</title></rect><rect x="150" y="197.694" width="6" height="2.30603" stroke="black" stroke-width="1" fill="blue" tooltip="enable"><title>(0.993728,4894)</title></rect><rect x="156" y="198.037" width="6" height="1.963" stroke="black" stroke-width="1" fill="blue" tooltip="enable"><title>(1.03348,4166)</title></rect><rect x="162" y="198.205" width="6" height="1.79478" stroke="black" stroke-width="1" fill="blue" tooltip="enable"><title>(1.07323,3809)</title></rect><rect x="168" y="198.369" width="6" height="1.6308" stroke="black" stroke-width="1" fill="blue" tooltip="enable"><title>(1.11298,3461)</title></rect><rect x="174" y="198.544" width="6" height="1.45646" stroke="black" stroke-width="1" fill="blue" tooltip="enable"><title>(1.15272,3091)</title></rect><rect x="180" y="198.708" width="6" height="1.29154" stroke="black" stroke-width="1" fill="blue" tooltip="enable"><title>(1.19247,2741)</title></rect><rect x="186" y="198.799" width="6" height="1.20108" stroke="black" stroke-width="1" fill="blue" tooltip="enable"><title>(1.23222,2549)</title></rect><rect x="192" y="198.948" width="6" height="1.05171" stroke="black" stroke-width="1" fill="blue" tooltip="enable"><title>(1.27197,2232)</title></rect><rect x="198" y="199.003" width="6" height="0.996577" stroke="black" stroke-width="1" fill="blue" tooltip="enable"><title>(1.31172,2115)</title></rect><rect x="204" y="199.118" width="6" height="0.881605" stroke="black" stroke-width="1" fill="blue" tooltip="enable"><title>(1.35147,1871)</title></rect><rect x="210" y="199.187" width="6" height="0.813282" stroke="black" stroke-width="1" fill="blue" tooltip="enable"><title>(1.39122,1726)</title></rect><rect x="216" y="199.256" width="6" height="0.743545" stroke="black" stroke-width="1" fill="blue" tooltip="enable"><title>(1.43097,1578)</title></rect><rect x="222" y="199.336" width="6" height="0.663913" stroke="black" stroke-width="1" fill="blue" tooltip="enable"><title>(1.47072,1409)</title></rect><rect x="228" y="199.33" width="6" height="0.669568" stroke="black" stroke-width="1" fill="blue" tooltip="enable"><title>(1.51047,1421)</title></rect><rect x="234" y="199.448" width="6" height="0.55224" stroke="black" stroke-width="1" fill="blue" tooltip="enable"><title>(1.55022,1172)</title></rect><rect x="240" y="199.475" width="6" height="0.524911" stroke="black" stroke-width="1" fill="blue" tooltip="enable"><title>(1.58997,1114)</title></rect><rect x="246" y="199.541" width="6" height="0.459415" stroke="black" stroke-width="1" fill="blue" tooltip="enable"><title>(1.62971,975)</title></rect><rect x="252" y="199.577" width="6" height="0.422662" stroke="black" stroke-width="1" fill="blue" tooltip="enable"><title>(1.66946,897)</title></rect><rect x="258" y="199.598" width="6" height="0.4024" stroke="black" stroke-width="1" fill="blue" tooltip="enable"><title>(1.70921,854)</title></rect><rect x="264" y="199.645" width="6" height="0.35481" stroke="black" stroke-width="1" fill="blue" tooltip="enable"><title>(1.74896,753)</title></rect><rect x="270" y="199.667" width="6" height="0.332663" stroke="black" stroke-width="1" fill="blue" tooltip="enable"><title>(1.78871,706)</title></rect><rect x="276" y="199.666" width="6" height="0.334077" stroke="black" stroke-width="1" fill="blue" tooltip="enable"><title>(1.82846,709)</title></rect><rect x="282" y="199.706" width="6" height="0.293554" stroke="black" stroke-width="1" fill="blue" tooltip="enable"><title>(1.86821,623)</title></rect><rect x="288" y="199.741" width="6" height="0.259157" stroke="black" stroke-width="1" fill="blue" tooltip="enable"><title>(1.90796,550)</title></rect><rect x="294" y="199.751" width="6" height="0.249262" stroke="black" stroke-width="1" fill="blue" tooltip="enable"><title>(1.94771,529)</title></rect><rect x="300" y="199.735" width="6" height="0.265283" stroke="black" stroke-width="1" fill="blue" tooltip="enable"><title>(1.98746,563)</title></rect><rect x="306" y="199.771" width="6" height="0.229001" stroke="black" stroke-width="1" fill="blue" tooltip="enable"><title>(2.02721,486)</title></rect><rect x="312" y="199.804" width="6" height="0.196017" stroke="black" stroke-width="1" fill="blue" tooltip="enable"><title>(2.06695,416)</title></rect><rect x="318" y="199.806" width="6" height="0.194132" stroke="black" stroke-width="1" fill="blue" tooltip="enable"><title>(2.1067,412)</title></rect><rect x="324" y="199.807" width="6" height="0.19319" stroke="black" stroke-width="1" fill="blue" tooltip="enable"><title>(2.14645,410)</title></rect><rect x="330" y="199.837" width="6" height="0.163505" stroke="black" stroke-width="1" fill="blue" tooltip="enable"><title>(2.1862,347)</title></rect><rect x="336" y="199.831" width="6" height="0.168688" stroke="black" stroke-width="1" fill="blue" tooltip="enable"><title>(2.22595,358)</title></rect><rect x="342" y="199.851" width="6" height="0.149369" stroke="black" stroke-width="1" fill="blue" tooltip="enable"><title>(2.2657,317)</title></rect><rect x="348" y="199.864" width="6" height="0.135704" stroke="black" stroke-width="1" fill="blue" tooltip="enable"><title>(2.30545,288)</title></rect><rect x="354" y="199.874" width="6" height="0.12628" stroke="black" stroke-width="1" fill="blue" tooltip="enable"><title>(2.3452,268)</title></rect><rect x="360" y="199.876" width="6" height="0.123924" stroke="black" stroke-width="1" fill="blue" tooltip="enable"><title>(2.38495,263)</title></rect><rect x="366" y="199.888" width="6" height="0.112144" stroke="black" stroke-width="1" fill="blue" tooltip="enable"><title>(2.4247,238)</title></rect><rect x="372" y="199.899" width="6" height="0.101307" stroke="black" stroke-width="1" fill="blue" tooltip="enable"><title>(2.46445,215)</title></rect><rect x="378" y="199.902" width="6" height="0.0975373" stroke="black" stroke-width="1" fill="blue" tooltip="enable"><title>(2.5042,207)</title></rect><rect x="384" y="199.91" width="6" height="0.089527" stroke="black" stroke-width="1" fill="blue" tooltip="enable"><title>(2.54394,190)</title></rect><rect x="390" y="199.91" width="6" height="0.089527" stroke="black" stroke-width="1" fill="blue" tooltip="enable"><title>(2.58369,190)</title></rect><rect x="396" y="199.92" width="6" height="0.0801031" stroke="black" stroke-width="1" fill="blue" tooltip="enable"><title>(2.62344,170)</title></rect><rect x="402" y="199.925" width="6" height="0.0753912" stroke="black" stroke-width="1" fill="blue" tooltip="enable"><title>(2.66319,160)</title></rect><rect x="408" y="199.935" width="6" height="0.0650249" stroke="black" stroke-width="1" fill="blue" tooltip="enable"><title>(2.70294,138)</title></rect><rect x="414" y="199.94" width="6" height="0.0598417" stroke="black" stroke-width="1" fill="blue" tooltip="enable"><title>(2.74269,127)</title></rect><rect x="420" y="199.947" width="6" height="0.053245" stroke="black" stroke-width="1" fill="blue" tooltip="enable"><title>(2.78244,113)</title></rect><rect x="426" y="199.943" width="6" height="0.0574858" stroke="black" stroke-width="1" fill="blue" tooltip="enable"><title>(2.82219,122)</title></rect><rect x="432" y="199.951" width="6" height="0.0485331" stroke="black" stroke-width="1" fill="blue" tooltip="enable"><title>(2.86194,103)</title></rect><rect x="438" y="199.95" width="6" height="0.0504178" stroke="black" stroke-width="1" fill="blue" tooltip="enable"><title>(2.90169,107)</title></rect><rect x="444" y="199.96" width="6" height="0.0400515" stroke="black" stroke-width="1" fill="blue" tooltip="enable"><title>(2.94144,85)</title></rect><rect x="450" y="199.959" width="6" height="0.0409939" stroke="black" stroke-width="1" fill="blue" tooltip="enable"><title>(2.98118,87)</title></rect><rect x="456" y="199.96" width="6" height="0.0395804" stroke="black" stroke-width="1" fill="blue" tooltip="enable"><title>(3.02093,84)</title></rect><rect x="462" y="199.952" width="6" height="0.0475907" stroke="black" stroke-width="1" fill="blue" tooltip="enable"><title>(3.06068,101)</title></rect><rect x="468" y="199.959" width="6" height="0.0405227" stroke="black" stroke-width="1" fill="blue" tooltip="enable"><title>(3.10043,86)</title></rect><rect x="474" y="199.959" width="6" height="0.0405227" stroke="black" stroke-width="1" fill="blue" tooltip="enable"><title>(3.14018,86)</title></rect><rect x="480" y="199.96" width="6" height="0.0400515" stroke="black" stroke-width="1" fill="blue" tooltip="enable"><title>(3.17993,85)</title></rect><rect x="486" y="199.969" width="6" height="0.0306277" stroke="black" stroke-width="1" fill="blue" tooltip="enable"><title>(3.21968,65)</title></rect><rect x="492" y="199.969" width="6" height="0.0310988" stroke="black" stroke-width="1" fill="blue" tooltip="enable"><title>(3.25943,66)</title></rect><rect x="498" y="199.973" width="6" height="0.0268581" stroke="black" stroke-width="1" fill="blue" tooltip="enable"><title>(3.29918,57)</title></rect><rect x="504" y="199.974" width="6" height="0.0263869" stroke="black" stroke-width="1" fill="blue" tooltip="enable"><title>(3.33893,56)</title></rect><rect x="510" y="199.978" width="6" height="0.0221462" stroke="black" stroke-width="1" fill="blue" tooltip="enable"><title>(3.37868,47)</title></rect><rect x="516" y="199.975" width="6" height="0.0249733" stroke="black" stroke-width="1" fill="blue" tooltip="enable"><title>(3.41843,53)</title></rect><rect x="522" y="199.98" width="6" height="0.0197902" stroke="black" stroke-width="1" fill="blue" tooltip="enable"><title>(3.45817,42)</title></rect><rect x="528" y="199.975" width="6" height="0.0245021" stroke="black" stroke-width="1" fill="blue" tooltip="enable"><title>(3.49792,52)</title></rect><rect x="534" y="199.982" width="6" height="0.0183766" stroke="black" stroke-width="1" fill="blue" tooltip="enable"><title>(3.53767,39)</title></rect><rect x="540" y="199.987" width="6" height="0.0127223" stroke="black" stroke-width="1" fill="blue" tooltip="enable"><title>(3.57742,27)</title></rect><rect x="546" y="199.986" width="6" height="0.0141358" stroke="black" stroke-width="1" fill="blue" tooltip="enable"><title>(3.61717,30)</title></rect><rect x="552" y="199.987" width="6" height="0.0131935" stroke="black" stroke-width="1" fill="blue" tooltip="enable"><title>(3.65692,28)</title></rect><rect x="558" y="199.986" width="6" height="0.0136646" stroke="black" stroke-width="1" fill="blue" tooltip="enable"><title>(3.69667,29)</title></rect><rect x="564" y="199.988" width="6" height="0.0122511" stroke="black" stroke-width="1" fill="blue" tooltip="enable"><title>(3.73642,26)</title></rect><rect x="570" y="199.991" width="6" height="0.0089527" stroke="black" stroke-width="1" fill="blue" tooltip="enable"><title>(3.77617,19)</title></rect><rect x="576" y="199.992" width="6" height="0.0084815" stroke="black" stroke-width="1" fill="blue" tooltip="enable"><title>(3.81592,18)</title></rect><rect x="582" y="199.993" width="6" height="0.00659673" stroke="black" stroke-width="1" fill="blue" tooltip="enable"><title>(3.85567,14)</title></rect><rect x="588" y="199.997" width="6" height="0.00329836" stroke="black" stroke-width="1" fill="blue" tooltip="enable"><title>(3.89541,7)</title></rect><rect x="594" y="199.997" width="6" height="0.00329836" stroke="black" stroke-width="1" fill="blue" tooltip="enable"><title>(3.93516,7)</title></rect><text x="30" y="240" font-size="20" fill="black">0</text>
<text x="600" y="240" font-size="20" fill="black">3.97491</text>
<polyline points="0,220,600,220" stroke="black" stroke-width="1" fill="none"/>
<text x="720" y="20" font-size="20" fill="black">424453</text>
<text x="720" y="200" font-size="20" fill="black">0</text>
<polyline points="660,0,660,200" stroke="black" stroke-width="1" fill="none"/>
</svg>